<?xml version="1.0" encoding="UTF-8" standalone="no"?>
<svg
   xmlns:dc="http://purl.org/dc/elements/1.1/"
   xmlns:cc="http://creativecommons.org/ns#"
   xmlns:rdf="http://www.w3.org/1999/02/22-rdf-syntax-ns#"
   xmlns:svg="http://www.w3.org/2000/svg"
   xmlns="http://www.w3.org/2000/svg"
   xmlns:sodipodi="http://sodipodi.sourceforge.net/DTD/sodipodi-0.dtd"
   xmlns:inkscape="http://www.inkscape.org/namespaces/inkscape"
   version="1.1"
   id="svg2"
   xml:space="preserve"
   width="786.58856"
   height="155.73695"
   viewBox="0 0 786.58855 155.73695"
   sodipodi:docname="logo.svg"
   inkscape:version="1.0.1 (3bc2e813f5, 2020-09-07)"><metadata
     id="metadata8"><rdf:RDF><cc:Work
         rdf:about=""><dc:format>image/svg+xml</dc:format><dc:type
           rdf:resource="http://purl.org/dc/dcmitype/StillImage" /><dc:title /></cc:Work></rdf:RDF></metadata><defs
     id="defs6"><clipPath
       clipPathUnits="userSpaceOnUse"
       id="clipPath18"><path
         d="M 0,510.236 H 1984.252 V 0 H 0 Z"
         id="path16" /></clipPath></defs><sodipodi:namedview
     pagecolor="#ffffff"
     bordercolor="#666666"
     borderopacity="1"
     objecttolerance="10"
     gridtolerance="10"
     guidetolerance="10"
     inkscape:pageopacity="0"
     inkscape:pageshadow="2"
     inkscape:window-width="1914"
     inkscape:window-height="1037"
     id="namedview4"
     showgrid="false"
     inkscape:zoom="0.43992607"
     inkscape:cx="-410.68557"
     inkscape:cy="391.94019"
     inkscape:window-x="0"
     inkscape:window-y="20"
     inkscape:window-maximized="0"
     inkscape:current-layer="g10"
     inkscape:document-rotation="0" /><g
     id="g10"
     inkscape:groupmode="layer"
     inkscape:label="logo completo chiaro"
     transform="matrix(1.3333333,0,0,-1.3333333,-929.54002,418.02634)"><g
       id="g12"
       style="opacity:1;fill:#eceff4;fill-opacity:1"
       transform="matrix(0.3,0,0,0.3,694.48803,178.58288)"><g
         id="g14"
         clip-path="url(#clipPath18)"
         style="fill:#eceff4;fill-opacity:1"><g
           id="g20"
           transform="translate(148.543,319.1552)"
           style="fill:#eceff4;fill-opacity:1"><path
             d="m 0,0 c -31.435,0 -58.317,-11.423 -80.648,-34.269 -22.159,-22.674 -33.239,-50.073 -33.239,-82.194 0,-32.122 11.08,-59.52 33.239,-82.194 22.331,-22.846 49.213,-34.269 80.648,-34.269 38.477,0 69.139,15.975 91.985,47.925 2.061,2.92 4.809,4.638 8.245,5.153 0.859,0.172 1.718,0.258 2.577,0.258 2.576,0 4.981,-0.773 7.214,-2.319 2.749,-2.062 4.466,-4.896 5.153,-8.503 0.172,-0.687 0.258,-1.374 0.258,-2.062 0,-2.576 -0.859,-5.067 -2.577,-7.471 C 84.856,-239.11 47.238,-258.692 0,-258.692 c -38.478,0 -71.373,13.914 -98.685,41.741 -27.312,27.827 -40.968,61.323 -40.968,100.488 0,39.164 13.656,72.66 40.968,100.488 27.312,27.827 60.207,41.741 98.685,41.741 47.238,0 84.856,-19.582 112.855,-58.747 1.718,-2.405 2.577,-4.895 2.577,-7.472 0,-0.687 -0.086,-1.374 -0.258,-2.061 -0.687,-3.608 -2.404,-6.442 -5.153,-8.503 -2.233,-1.546 -4.638,-2.319 -7.214,-2.319 -0.859,0 -1.718,0.086 -2.577,0.257 -3.436,0.516 -6.184,2.234 -8.245,5.154 C 69.139,-15.975 38.477,0 0,0"
             style="fill:#eceff4;fill-opacity:1;fill-rule:nonzero;stroke:none"
             id="path22" /></g><g
           id="g24"
           transform="translate(447.5317,345.1786)"
           style="fill:#eceff4;fill-opacity:1"><path
             d="m 0,0 c 35.558,0 65.961,-13.914 91.212,-41.741 25.423,-27.827 38.134,-61.323 38.134,-100.488 V -272.09 c 0,-3.435 -1.288,-6.442 -3.865,-9.018 -2.405,-2.406 -5.411,-3.608 -9.018,-3.608 -3.607,0 -6.613,1.202 -9.018,3.608 -2.577,2.576 -3.865,5.583 -3.865,9.018 v 129.861 c 0,32.122 -10.135,59.52 -30.404,82.194 C 52.907,-37.189 28.515,-25.766 0,-25.766 c -28.686,0 -53.164,-11.423 -73.433,-34.269 -20.27,-22.674 -30.404,-50.072 -30.404,-82.194 v -129.088 c 0,-3.436 -1.288,-6.442 -3.865,-9.018 -2.405,-2.577 -5.411,-3.865 -9.018,-3.865 -3.608,0 -6.613,1.288 -9.019,3.865 -2.576,2.576 -3.865,5.582 -3.865,9.018 V 91.728 c 0,3.607 1.289,6.613 3.865,9.018 2.406,2.576 5.411,3.865 9.019,3.865 3.607,0 6.613,-1.289 9.018,-3.865 2.577,-2.405 3.865,-5.411 3.865,-9.018 V -57.458 C -77.899,-19.153 -43.287,0 0,0"
             style="fill:#eceff4;fill-opacity:1;fill-rule:nonzero;stroke:none"
             id="path26" /></g><g
           id="g28"
           transform="translate(763.3574,60.4472)"
           style="fill:#eceff4;fill-opacity:1"><path
             d="m 0,0 v 0 c -7.193,0 -13.024,5.831 -13.024,13.024 v 258.354 c 0,7.193 5.831,13.024 13.024,13.024 7.193,0 13.024,-5.831 13.024,-13.024 V 13.024 C 13.024,5.831 7.193,0 0,0"
             style="fill:#eceff4;fill-opacity:1;fill-rule:nonzero;stroke:none"
             id="path30" /></g><g
           id="g32"
           transform="translate(637.3169,136.9794)"
           style="fill:#eceff4;fill-opacity:1"><path
             d="m 0,0 v 0 c -7.193,0 -13.024,5.831 -13.024,13.024 v 105.289 c 0,7.193 5.831,13.025 13.024,13.025 7.193,0 13.024,-5.832 13.024,-13.025 V 13.024 C 13.024,5.831 7.193,0 0,0"
             style="fill:#eceff4;fill-opacity:1;fill-rule:nonzero;stroke:none"
             id="path34" /></g><g
           id="g36"
           transform="translate(890.3433,136.9794)"
           style="fill:#eceff4;fill-opacity:1"><path
             d="m 0,0 v 0 c -7.193,0 -13.024,5.831 -13.024,13.024 v 105.289 c 0,7.193 5.831,13.025 13.024,13.025 7.193,0 13.024,-5.832 13.024,-13.025 V 13.024 C 13.024,5.831 7.193,0 0,0"
             style="fill:#eceff4;fill-opacity:1;fill-rule:nonzero;stroke:none"
             id="path38" /></g><g
           id="g40"
           transform="translate(827.3232,81.0116)"
           style="fill:#eceff4;fill-opacity:1"><path
             d="m 0,0 v 0 c -7.193,0 -13.024,5.831 -13.024,13.024 v 217.225 c 0,7.193 5.831,13.024 13.024,13.024 7.193,0 13.024,-5.831 13.024,-13.024 V 13.024 C 13.024,5.831 7.193,0 0,0"
             style="fill:#eceff4;fill-opacity:1;fill-rule:nonzero;stroke:none"
             id="path42" /></g><g
           id="g44"
           transform="translate(700.2319,81.0116)"
           style="fill:#eceff4;fill-opacity:1"><path
             d="m 0,0 v 0 c -7.193,0 -13.024,5.831 -13.024,13.024 v 217.225 c 0,7.193 5.831,13.024 13.024,13.024 7.193,0 13.024,-5.831 13.024,-13.024 V 13.024 C 13.024,5.831 7.193,0 0,0"
             style="fill:#eceff4;fill-opacity:1;fill-rule:nonzero;stroke:none"
             id="path46" /></g><g
           id="g48"
           transform="translate(1272.4189,86.2294)"
           style="fill:#eceff4;fill-opacity:1"><path
             d="m 0,0 c 31.435,0 58.231,11.423 80.39,34.269 22.331,22.673 33.496,50.072 33.496,82.194 0,32.121 -11.165,59.519 -33.496,82.194 -22.159,22.845 -48.955,34.269 -80.39,34.269 -31.435,0 -58.317,-11.424 -80.648,-34.269 -22.16,-22.675 -33.239,-50.073 -33.239,-82.194 0,-32.122 11.079,-59.521 33.239,-82.194 C -58.317,11.423 -31.435,0 0,0 m 139.652,116.033 c 0,-3.435 -25.766,-81.507 -25.766,-81.507 C 85.887,-5.669 47.925,-25.767 0,-25.767 c -38.478,0 -71.373,13.914 -98.685,41.742 -27.312,27.827 -40.967,61.323 -40.967,100.488 0,39.164 13.655,72.66 40.967,100.488 27.312,27.827 60.207,41.741 98.685,41.741 47.925,0 85.887,-20.098 113.886,-60.293 v 152.278 c 0,3.607 1.288,6.613 3.865,9.018 2.404,2.576 5.411,3.865 9.018,3.865 3.435,0 6.442,-1.289 9.018,-3.865 2.577,-2.405 3.865,-5.411 3.865,-9.018 z"
             style="fill:#eceff4;fill-opacity:1;fill-rule:nonzero;stroke:none"
             id="path50" /></g><g
           id="g52"
           transform="translate(1580.6836,449.7894)"
           style="fill:#eceff4;fill-opacity:1"><path
             d="m 0,0 c 3.436,0 6.441,-1.289 9.019,-3.865 2.576,-2.405 3.864,-5.411 3.864,-9.018 0,-3.608 -1.288,-6.614 -3.864,-9.018 C 6.441,-24.478 3.436,-25.766 0,-25.766 h -0.773 c -19.754,0 -35.643,-5.669 -47.667,-17.006 -12.025,-11.509 -18.037,-29.717 -18.037,-54.624 v -7.472 h 42.256 c 3.436,0 6.443,-1.289 9.019,-3.865 2.405,-2.577 3.607,-5.583 3.607,-9.018 0,-3.608 -1.202,-6.7 -3.607,-9.276 -2.576,-2.405 -5.583,-3.607 -9.019,-3.607 h -42.256 v -245.81 c 0,-3.435 -1.288,-6.441 -3.865,-9.017 -2.404,-2.578 -5.411,-3.866 -9.017,-3.866 -3.436,0 -6.443,1.288 -9.019,3.866 -2.576,2.576 -3.865,5.582 -3.865,9.017 v 245.81 h -19.84 c -3.607,0 -6.613,1.202 -9.018,3.607 -2.577,2.576 -3.865,5.668 -3.865,9.276 0,3.435 1.288,6.441 3.865,9.018 2.405,2.576 5.411,3.865 9.018,3.865 h 19.84 v 7.472 c 0,32.293 8.675,56.685 26.024,73.176 C -49.214,-8.074 -27.398,0 -0.773,0 Z"
             style="fill:#eceff4;fill-opacity:1;fill-rule:nonzero;stroke:none"
             id="path54" /></g><g
           id="g56"
           transform="translate(1962.4785,449.7894)"
           style="fill:#eceff4;fill-opacity:1"><path
             d="m 0,0 c 3.607,0 6.613,-1.289 9.019,-3.865 2.576,-2.405 3.864,-5.411 3.864,-9.018 v -363.561 c 0,-3.435 -1.288,-6.441 -3.864,-9.017 -2.406,-2.578 -5.412,-3.866 -9.019,-3.866 -3.607,0 -6.613,1.288 -9.019,3.866 -2.576,2.576 -3.864,5.582 -3.864,9.017 v 363.561 c 0,3.607 1.288,6.613 3.864,9.018 C -6.613,-1.289 -3.607,0 0,0"
             style="fill:#eceff4;fill-opacity:1;fill-rule:nonzero;stroke:none"
             id="path58" /></g><g
           id="g60"
           transform="translate(1371.1025,303.1801)"
           style="fill:#eceff4;fill-opacity:1"><path
             d="M 0,0 C -25.922,26.41 -56.935,40.131 -92.913,41.475 V 15.708 c 28.943,-1.335 53.938,-12.58 74.877,-34.002 22.159,-22.674 33.238,-50.073 33.238,-82.194 0,-32.122 -11.079,-59.52 -33.238,-82.194 -20.939,-21.422 -45.934,-32.667 -74.877,-34.002 v -25.768 c 35.978,1.345 66.991,15.066 92.913,41.476 27.312,27.827 40.969,61.323 40.969,100.488 C 40.969,-61.324 27.312,-27.828 0,0"
             style="fill:#eceff4;fill-opacity:1;fill-rule:nonzero;stroke:none"
             id="path62" /></g><g
           id="g64"
           transform="translate(1870.6494,341.056)"
           style="fill:#eceff4;fill-opacity:1"><path
             d="m 0,0 c -2.405,2.577 -5.411,3.865 -9.019,3.865 -3.607,0 -6.613,-1.288 -9.017,-3.865 -2.577,-2.577 -3.865,-5.583 -3.865,-9.018 v -129.861 c 0,-32.122 -9.534,-59.434 -28.601,-81.937 -17.117,-20.696 -37.511,-31.918 -61.112,-33.865 v -25.527 c 30.793,1.898 57.301,15.494 79.406,41.098 24.049,27.656 36.072,61.067 36.072,100.231 V -9.018 C 3.864,-5.583 2.576,-2.577 0,0"
             style="fill:#eceff4;fill-opacity:1;fill-rule:nonzero;stroke:none"
             id="path66" /></g><g
           id="g68"
           transform="translate(1784.2432,92.495)"
           style="fill:#eceff4;fill-opacity:1"><path
             d="m 0,0 c -10.142,-4.261 -20.987,-6.523 -32.634,-6.523 -26.797,0 -49.642,11.422 -68.538,34.268 -19.066,22.503 -28.599,49.815 -28.599,81.937 v 129.861 c 0,3.436 -1.29,6.441 -3.866,9.018 -2.405,2.577 -5.411,3.865 -9.018,3.865 -3.607,0 -6.614,-1.288 -9.018,-3.865 -2.577,-2.577 -3.865,-5.582 -3.865,-9.018 V 109.682 c 0,-39.164 12.024,-72.575 36.072,-100.231 23.877,-27.655 52.821,-41.483 86.832,-41.483 11.55,0 22.377,1.681 32.634,4.691 z"
             style="fill:#eceff4;fill-opacity:1;fill-rule:nonzero;stroke:none"
             id="path70" /></g><g
           id="g72"
           transform="translate(1089.1191,344.9213)"
           style="fill:#eceff4;fill-opacity:1"><path
             d="m 0,0 c 3.436,0 6.441,-1.289 9.019,-3.865 2.576,-2.577 3.865,-5.583 3.865,-9.018 0,-3.608 -1.289,-6.7 -3.865,-9.276 -2.578,-2.405 -5.583,-3.607 -9.019,-3.607 -28.687,0 -53.164,-11.423 -73.434,-34.269 -20.268,-22.674 -30.403,-50.073 -30.403,-82.194 v -129.347 c 0,-3.435 -1.288,-6.441 -3.865,-9.017 -2.405,-2.577 -5.411,-3.865 -9.018,-3.865 -3.608,0 -6.613,1.288 -9.018,3.865 -2.577,2.576 -3.866,5.582 -3.866,9.017 v 129.547 2.312 c 0,49.05 25.767,82.259 25.767,82.259 C -77.899,-19.153 -43.287,0 0,0"
             style="fill:#eceff4;fill-opacity:1;fill-rule:nonzero;stroke:none"
             id="path74" /></g></g></g></g></svg>
